<?xml version="1.0" encoding="UTF-8"?>
<svg width="16px" height="16px" viewBox="0 0 16 16" version="1.1" xmlns="http://www.w3.org/2000/svg" xmlns:xlink="http://www.w3.org/1999/xlink">
    <title>asciidoc</title>
    <g id="asciidoc" stroke="none" stroke-width="1" fill="none" fill-rule="evenodd" stroke-linecap="square">
        <path d="M5.133,11.4990043 L6.86937917,14.5072266 C6.13499373,14.5430284 5.38595762,14.5483186 4.64124718,14.5420736 L3.95189504,14.5335277 L3.49537164,14.5258152 C2.81303761,14.5136617 2.14285714,14.5 1.5,14.5 L1.499,11.4990043 L5.133,11.4990043 Z M13.708328,11.499884 C12.9279088,12.8751906 11.6288205,13.6398562 10.0760394,14.058857 L8.597,11.4990043 Z M1.499,5.20400428 L3.401,8.49900428 L1.499,8.49900428 L1.499,5.20400428 Z M5.33308326,1.45600428 C9.94611233,1.47276101 14.5,2.15584416 14.5,8 C14.5,8.17115028 14.4960943,8.33787415 14.4883959,8.5002845 L6.865,8.49900428 L2.81664535,1.48629634 C3.04115677,1.48246733 3.26758699,1.47824202 3.49537164,1.47418478 L3.95189504,1.4664723 L4.64124718,1.45792637 C4.71804229,1.45728239 4.79488339,1.45676107 4.87174969,1.45638322 Z" id="Combined-Shape" stroke="#179299"></path>
    </g>
</svg>