<?xml version="1.0" encoding="UTF-8"?>
<svg width="16px" height="16px" viewBox="0 0 16 16" version="1.1" xmlns="http://www.w3.org/2000/svg" xmlns:xlink="http://www.w3.org/1999/xlink">
    <title>cakephp</title>
    <g id="cakephp" stroke="none" stroke-width="1" fill="none" fill-rule="evenodd" stroke-linecap="square">
        <path d="M7.5,13.5 L7.5,11.5 C4.83333333,11.5 2.83333333,11.0833333 1.5,10.25 L1.5,12 C1.5,12.75 4.5,13.5 7.5,13.5 Z M13,13 C13.75,13 14.5,12.5 14.5,12 L14.5,10.5 C13.8333333,10.8333333 13.3333333,11 13,11 L8.5,9.5 L8.5,11.75 L13,13 Z M1.5,7 C1.5,7.5 3.5,9 7.5,9 L7.5,7 L13.5,8.5 C14,8.25 14.5,7.75 14.5,7.25 L14.5,5 C14.5,4.75 12,3.5 8,3.5 C4,3.5 1.5,4.5 1.5,5 L1.5,7 Z" id="cake" stroke="#D20F39"></path>
    </g>
</svg>