<?xml version="1.0" encoding="UTF-8"?>
<svg width="16px" height="16px" viewBox="0 0 16 16" version="1.1" xmlns="http://www.w3.org/2000/svg" xmlns:xlink="http://www.w3.org/1999/xlink">
    <title>chart_lock</title>
    <g id="chart_lock" stroke="none" stroke-width="1" fill="none" fill-rule="evenodd">
        <path d="M2.5,9.00000446 C3.48264439,10.1240801 5.51865897,10.4991495 6.99903513,10.5000045 C7.46006478,10.5002719 7.97505724,10.4637978 8.4954053,10.3795215 M7,10.5 L7,12.5 M3,10 L2.25,11.5 M2.5,3.99999161 C3.48264439,2.87591994 5.51865897,2.50085051 6.99903513,2.49999161 C8.47937892,2.49913029 10.5160906,2.87710496 11.5,3.99999161 M7,2.5 L7,0.5 M3,3 L2.25,1.5 M11,3 L11.75,1.5" id="Combined-Shape" stroke="#1E66F5" stroke-linecap="round" stroke-linejoin="round"></path>
        <path d="M13.5,7.5 L13.5,5.5 L12,7 L10.5,5.5 L10.5,8 M7.5,5 L7.5,7.5 L8.99670452,7.5 M6,5.5 L4.5,5.5 L4.5,7.5 L6,7.5 M0.5,5 L0.5,8 M0.5,6.5 L2.5,6.5 M2.5,5 L2.5,8" id="Combined-Shape" stroke="#1E66F5" stroke-linejoin="round"></path>
        <g id="lock" transform="translate(9.5, 8.5)" stroke="#8C8FA1">
            <path d="M5.49820472,3 C5.77426543,3 5.99805686,3.22379143 5.99805686,3.49985214 L5.99805686,6.49879614 C5.99805686,6.77485686 5.77426543,6.99864829 5.49820472,6.99864829 L0.499852144,6.99864829 C0.223791428,6.99864829 0,6.77485686 0,6.49879614 L0,3.49968328 C0,3.22362256 0.223791428,2.99983113 0.499852144,2.99983113 L5.49820472,3 Z M1.49955643,3 L1.49955643,1.5 C1.49955643,0.671572875 2.17112931,0 2.99955643,0 C3.82798356,0 4.49955643,0.671572875 4.49955643,1.5 L4.49955643,3"></path>
        </g>
    </g>
</svg>