<?xml version="1.0" encoding="UTF-8"?>
<svg width="16px" height="16px" viewBox="0 0 16 16" version="1.1" xmlns="http://www.w3.org/2000/svg" xmlns:xlink="http://www.w3.org/1999/xlink">
    <title>folder_rules</title>
    <g id="folder_rules" stroke="none" stroke-width="1" fill="none" fill-rule="evenodd" stroke-linecap="round">
        <g id="folder" stroke="#4C4F69" stroke-linejoin="round">
            <path d="M4.5,4.5 L12,4.5 C12.8284271,4.5 13.5,5.17157288 13.5,6 C13.5,6.43429905 13.5,6.26763238 13.5,6.5 M6.5,13.5 C5.38123915,13.5 4.21457248,13.5 2,13.5 C1.17157288,13.5 0.5,12.8284271 0.5,12 L0.5,3.5 C0.5,2.94771525 0.94771525,2.5 1.5,2.5 L6.5,2.5 C7.05228475,2.5 7.5,2.94771525 7.5,3.5 L7.5,4.5" id="Shape"></path>
        </g>
        <g id="macos">
            <line x1="12.5" y1="14.5" x2="15.5" y2="14.5" id="Line-31" stroke="#1E66F5"></line>
            <line x1="12.5" y1="10.5" x2="15.5" y2="10.5" id="Line-31" stroke="#1E66F5"></line>
            <polyline id="Line" stroke="#40A02B" stroke-linejoin="round" points="8.5 10.5 9.5 11.5 10.5 9.5"></polyline>
            <line x1="8.5" y1="13.5" x2="10.5" y2="15.5" id="Line-32" stroke="#D20F39"></line>
            <line x1="8.5" y1="13.5" x2="10.5" y2="15.5" id="Line-32-Copy" stroke="#D20F39" transform="translate(9.5, 14.5) scale(-1, 1) translate(-9.5, -14.5)"></line>
        </g>
    </g>
</svg>