<?xml version="1.0" encoding="UTF-8"?>
<svg width="16px" height="16px" viewBox="0 0 16 16" version="1.1" xmlns="http://www.w3.org/2000/svg" xmlns:xlink="http://www.w3.org/1999/xlink">
    <title>folder_environment</title>
    <g id="folder_environment" stroke="none" stroke-width="1" fill="none" fill-rule="evenodd">
        <g id="folder" stroke="#4C4F69" stroke-linecap="round" stroke-linejoin="round">
            <path d="M4.5,4.5 L12,4.5 C12.8284271,4.5 13.5,5.17157288 13.5,6 C13.5,6.43429905 13.5,6.26763238 13.5,6.5 M6.5,13.5 C5.38123915,13.5 4.21457248,13.5 2,13.5 C1.17157288,13.5 0.5,12.8284271 0.5,12 L0.5,3.5 C0.5,2.94771525 0.94771525,2.5 1.5,2.5 L6.5,2.5 C7.05228475,2.5 7.5,2.94771525 7.5,3.5 L7.5,4.5" id="Shape"></path>
        </g>
        <g id="macos" stroke="#DF8E1D">
            <path d="M9,8 L9,9.5 M9,12.5 L9,16 M9,12.5 C9.82842712,12.5 10.5,11.8284271 10.5,11 C10.5,10.1715729 9.82842712,9.5 9,9.5 C8.17157288,9.5 7.5,10.1715729 7.5,11 C7.5,11.8284271 8.17157288,12.5 9,12.5 Z" id="Combined-Shape"></path>
            <path d="M14,14.5 L14,16 M14,8 L14,11.5 M14,14.5 C14.8284271,14.5 15.5,13.8284271 15.5,13 C15.5,12.1715729 14.8284271,11.5 14,11.5 C13.1715729,11.5 12.5,12.1715729 12.5,13 C12.5,13.8284271 13.1715729,14.5 14,14.5 Z" id="Combined-Shape"></path>
        </g>
    </g>
</svg>