<?xml version="1.0" encoding="UTF-8"?>
<svg width="16px" height="16px" viewBox="0 0 16 16" version="1.1" xmlns="http://www.w3.org/2000/svg" xmlns:xlink="http://www.w3.org/1999/xlink">
    <title>folder_pdm</title>
    <g id="folder_pdm" stroke="none" stroke-width="1" fill="none" fill-rule="evenodd" stroke-linejoin="round">
        <g id="folder" stroke="#4C4F69" stroke-linecap="round">
            <path d="M4.5,4.5 L12,4.5 C12.8284271,4.5 13.5,5.17157288 13.5,6 C13.5,6.43429905 13.5,6.26763238 13.5,6.5 M6.5,13.5 C5.38123915,13.5 4.21457248,13.5 2,13.5 C1.17157288,13.5 0.5,12.8284271 0.5,12 L0.5,3.5 C0.5,2.94771525 0.94771525,2.5 1.5,2.5 L6.5,2.5 C7.05228475,2.5 7.5,2.94771525 7.5,3.5 L7.5,4.5" id="Shape"></path>
        </g>
        <g id="macos" stroke="#8839EF">
            <polygon id="Polygon" points="12.5 8.5 15.5 10.25 15.5 13.75 12.5 15.5 9.5 13.75 9.5 10.25"></polygon>
            <polyline id="Line" points="13.5 9.25 13.5 10.5 13.5 13.75"></polyline>
            <line x1="9.50187078" y1="12.5762702" x2="13.4992689" y2="10.2683713" id="Line-Copy"></line>
            <line x1="14.498303" y1="14.3084213" x2="10.5" y2="12" id="Line-Copy-2"></line>
        </g>
    </g>
</svg>