<?xml version="1.0" encoding="UTF-8"?>
<svg width="16px" height="16px" viewBox="0 0 16 16" version="1.1" xmlns="http://www.w3.org/2000/svg" xmlns:xlink="http://www.w3.org/1999/xlink">
    <title>kubernetes</title>
    <g id="kubernetes" stroke="none" stroke-width="1" fill="none" fill-rule="evenodd">
        <path d="M8,9.5 C8.82842712,9.5 9.5,8.82842712 9.5,8 C9.5,7.17157288 8.82842712,6.5 8,6.5 C7.17157288,6.5 6.5,7.17157288 6.5,8 C6.5,8.82842712 7.17157288,9.5 8,9.5 Z M8,13.5 C11.0375661,13.5 13.5,11.0375661 13.5,8 C13.5,4.96243388 11.0375661,2.5 8,2.5 C4.96243388,2.5 2.5,4.96243388 2.5,8 C2.5,11.0375661 4.96243388,13.5 8,13.5 Z" id="Combined-Shape" stroke="#1E66F5"></path>
        <path d="M8,6.5 L8,0 M8.65755672,9.34819107 L11.5069692,15.1903524 M7.34244328,9.34819107 L4.49303083,15.1903524 M6.5384449,8.33742658 L0.205039482,9.79960843 M9.4615551,8.33742658 L15.7949605,9.79960843 M9.16571894,7.05601941 L14.2171677,2.96543687 M6.83428106,7.05601941 L1.78283231,2.96543687" id="Combined-Shape" stroke="#1E66F5"></path>
    </g>
</svg>