<?xml version="1.0" encoding="UTF-8"?>
<svg width="16px" height="16px" viewBox="0 0 16 16" version="1.1" xmlns="http://www.w3.org/2000/svg" xmlns:xlink="http://www.w3.org/1999/xlink">
    <title>moon</title>
    <g id="moon" stroke="none" stroke-width="1" fill="none" fill-rule="evenodd">
        <circle id="Oval" stroke="#8839EF" cx="12.5" cy="3.5" r="2"></circle>
        <path d="M7.5,2.5 C8.10789974,2.5 8.69470062,2.59037103 9.24767267,2.75844685 L9.268,2.765 L9.15585587,2.81723967 C8.92480854,2.93322768 8.71081569,3.07818494 8.51864322,3.24734554 L8.37867966,3.37867966 C7.83578644,3.92157288 7.5,4.67157288 7.5,5.5 C7.5,6.32842712 7.83578644,7.07842712 8.37867966,7.62132034 C8.92157288,8.16421356 9.67157288,8.5 10.5,8.5 C11.3284271,8.5 12.0784271,8.16421356 12.6213203,7.62132034 C12.8475259,7.39511484 13.0377753,7.13295329 13.1827603,6.84414413 L13.234,6.731 L13.2416434,6.75231069 C13.381628,7.21309508 13.4677192,7.69740919 13.4925279,8.19785552 L13.5,8.5 C13.5,10.1568542 12.8284271,11.6568542 11.7426407,12.7426407 C10.6568542,13.8284271 9.15685425,14.5 7.5,14.5 C5.84314575,14.5 4.34314575,13.8284271 3.25735931,12.7426407 C2.17157288,11.6568542 1.5,10.1568542 1.5,8.5 C1.5,6.84314575 2.17157288,5.34314575 3.25735931,4.25735931 C4.34314575,3.17157288 5.84314575,2.5 7.5,2.5 Z" id="Combined-Shape" stroke="#8839EF"></path>
    </g>
</svg>