<?xml version="1.0" encoding="UTF-8"?>
<svg width="16px" height="16px" viewBox="0 0 16 16" version="1.1" xmlns="http://www.w3.org/2000/svg" xmlns:xlink="http://www.w3.org/1999/xlink">
    <title>pdm_lock</title>
    <g id="pdm_lock" stroke="none" stroke-width="1" fill="none" fill-rule="evenodd">
        <g id="lock" transform="translate(9.5, 8.5)" stroke="#8C8FA1">
            <path d="M5.49820472,3 C5.77426543,3 5.99805686,3.22379143 5.99805686,3.49985214 L5.99805686,6.49879614 C5.99805686,6.77485686 5.77426543,6.99864829 5.49820472,6.99864829 L0.499852144,6.99864829 C0.223791428,6.99864829 0,6.77485686 0,6.49879614 L0,3.49968328 C0,3.22362256 0.223791428,2.99983113 0.499852144,2.99983113 L5.49820472,3 Z M1.49955643,3 L1.49955643,1.5 C1.49955643,0.671572875 2.17112931,0 2.99955643,0 C3.82798356,0 4.49955643,0.671572875 4.49955643,1.5 L4.49955643,3"></path>
        </g>
        <path d="M8.00354826,13.6229302 L6.5,14.5 L0.5,11 L0.5,4 L6.5,0.5 L12.5,4 L12.5,7 M8.5,1.65359497 L8.5,4.07922363 L8.5,10.39 M8.49986635,10.3866742 L3.00440796,7.2138698 M-1.42820323,9.76794919 L8.50086516,4.03539888" id="Combined-Shape" stroke="#8839EF" stroke-linecap="round" stroke-linejoin="round"></path>
    </g>
</svg>