<?xml version="1.0" encoding="UTF-8"?>
<svg width="16px" height="16px" viewBox="0 0 16 16" version="1.1" xmlns="http://www.w3.org/2000/svg" xmlns:xlink="http://www.w3.org/1999/xlink">
    <title>php_cs_fixer</title>
    <g id="php_cs_fixer" stroke="none" stroke-width="1" fill="none" fill-rule="evenodd">
        <path d="M12,5.5 L13,5.5 M10,5.5 L11,5.5" id="Combined-Shape" stroke="#4C4F69"></path>
        <path d="M9.5,15.5 C9.16666667,15 9.08333333,14 9.25,12.5 C9.41666667,11 9.83333333,9.66666667 10.5,8.5 M9.5,12.5 C12.75,12.25 13.5,9.5 13.25,8.5 C14.5,7.25 14.75,5.5 14.5,3.5 C15,2.25 14.5,1.5 13.5,0.5 C12.5,1 11.75,1.5 11.5,2.5 C8.75,3.75 8.25,6 8.5,7.5 C6.75,8.75 7.5,12.5 9.5,12.5 Z M4.5,15.5 C4.5,14 4.16666667,12.6666667 3.5,11.5 M4.5,13.5 C6,13 6,12.25 5.5,10.5 C5.16666667,9.33333333 4.16666667,8.33333333 2.5,7.5 C1.47998161,9.10661149 1.14664827,10.4399448 1.5,11.5 C2.03002759,13.0900828 3,14 4.5,13.5 Z" id="Combined-Shape" stroke="#E64553" stroke-linecap="round"></path>
    </g>
</svg>