<?xml version="1.0" encoding="UTF-8"?>
<svg width="16px" height="16px" viewBox="0 0 16 16" version="1.1" xmlns="http://www.w3.org/2000/svg" xmlns:xlink="http://www.w3.org/1999/xlink">
    <title>phpstan</title>
    <g id="phpstan" stroke="none" stroke-width="1" fill="none" fill-rule="evenodd">
        <path d="M5.5,3.25 C6.16666667,2.75 7,2.5 8,2.5 C9,2.5 9.83333333,2.75 10.5,3.25 M10,3 C10.3333333,2.66666667 10.8333333,2.5 11.5,2.5 C12.5,2.5 14.5,4 14.5,6.5 C14.5,9 13.25,10.5 12.5,10.5 C12,10.5 11.4166667,10.0833333 10.75,9.25 C11.4166667,8.41666667 11.6666667,7.16666667 11.5,5.5 M6,3 C5.66666667,2.66666667 5.16666667,2.5 4.5,2.5 C3.5,2.5 1.5,4 1.5,6.5 C1.5,7.26423645 1.61681147,7.93502372 1.80044232,8.49807837 M3.75,10 C3.58333333,9.66666667 3.33333333,9.5 3,9.5 C2.5,9.5 2.5,10 2.5,10.75 C2.5,11.0413931 2.72642647,11.5214749 3.12063132,11.9996391 M4.99776983,13.3324855 C5.31280594,13.4382904 5.64868927,13.5 6,13.5 C8,13.5 10,12 10.5,8.5 M6.5,10.5 C6.33333333,11.1666667 6.08333333,11.5 5.75,11.5 C5.41666667,11.5 5.25,11.4166667 5.25,11.25" id="Combined-Shape" stroke="#1E66F5" stroke-linecap="round" stroke-linejoin="round"></path>
        <circle id="Oval" stroke="#8C8FA1" cx="6" cy="7" r="1.5"></circle>
        <path d="M5.10330782,9.33139966 L3.5,13.5 M6,9.5 C7.38071187,9.5 8.5,8.38071187 8.5,7 C8.5,5.61928813 7.38071187,4.5 6,4.5 C4.61928813,4.5 3.5,5.61928813 3.5,7 C3.5,8.38071187 4.61928813,9.5 6,9.5 Z" id="Combined-Shape" stroke="#4C4F69" stroke-linecap="round"></path>
    </g>
</svg>