<?xml version="1.0" encoding="UTF-8"?>
<svg width="16px" height="16px" viewBox="0 0 16 16" version="1.1" xmlns="http://www.w3.org/2000/svg" xmlns:xlink="http://www.w3.org/1999/xlink">
    <title>swagger</title>
    <g id="swagger" stroke="none" stroke-width="1" fill="none" fill-rule="evenodd">
        <path d="M6,4.5 L5.1875,4.5 C4.71875,4.5 4.49791687,4.97727273 4.5,5.45454545 L4.5,6.72727273 C4.5,7.43018059 3.51875,8 3,8 C3.51875,8 4.5,8.56981941 4.5,9.27272727 L4.5,10.5454545 C4.49791687,11.0227273 4.71875,11.5 5.1875,11.5 L6,11.5 M10,4.5 L10.8125,4.5 C11.28125,4.5 11.5020831,4.97727273 11.5,5.45454545 L11.5,6.72727273 C11.5,7.43018059 12.48125,8 13,8 C12.48125,8 11.5,8.56981941 11.5,9.27272727 L11.5,10.5454545 C11.5020831,11.0227273 11.28125,11.5 10.8125,11.5 L10,11.5" id="Combined-Shape" stroke="#40A02B"></path>
        <path d="M8,15 C11.8659932,15 15,11.8659932 15,8 C15,4.13400675 11.8659932,1 8,1 C4.13400675,1 1,4.13400675 1,8 C1,11.8659932 4.13400675,15 8,15 Z M6.5,8.5 C6.77614237,8.5 7,8.27614237 7,8 C7,7.72385763 6.77614237,7.5 6.5,7.5 C6.22385763,7.5 6,7.72385763 6,8 C6,8.27614237 6.22385763,8.5 6.5,8.5 Z M9.5,8.5 C9.77614237,8.5 10,8.27614237 10,8 C10,7.72385763 9.77614237,7.5 9.5,7.5 C9.22385763,7.5 9,7.72385763 9,8 C9,8.27614237 9.22385763,8.5 9.5,8.5 Z" id="Combined-Shape" stroke="#40A02B"></path>
    </g>
</svg>