<?xml version="1.0" encoding="UTF-8"?>
<svg width="16px" height="16px" viewBox="0 0 16 16" version="1.1" xmlns="http://www.w3.org/2000/svg" xmlns:xlink="http://www.w3.org/1999/xlink">
    <title>syncpack</title>
    <g id="syncpack" stroke="none" stroke-width="1" fill="none" fill-rule="evenodd" stroke-linecap="round" stroke-linejoin="round">
        <path d="M5.5,6.5 L3,9 L0.5,6.5 L1.67375142,6.50076398 C2.3506381,3.63367903 4.92614533,1.5 8,1.5 C10.8934757,1.5 13.3453756,3.39061067 14.187755,6.00388734 C14.2227289,6.11238505 13.8268105,5.77775593 13,5 L12.033478,6.00249271 C11.9461591,5.82651177 11.8476623,5.65705906 11.7389161,5.49506313 C10.9312102,4.29184779 9.55807808,3.5 8,3.5 C6.03953021,3.5 4.37187098,4.753671 3.75497988,6.5030554 L5.5,6.5 Z" id="Path" stroke="#04A5E5"></path>
        <path d="M6.81011594,12 L4.31011594,14.5 L1.81011594,12 L2.98386736,12.000764 C3.66075404,9.13367903 6.23626127,7 9.31011594,7 C12.2035916,7 14.6554915,8.89061067 15.497871,11.5038873 C15.5328448,11.612385 15.1369264,11.2777559 14.3101159,10.5 L13.3435939,11.5024927 C13.2562751,11.3265118 13.1577782,11.1570591 13.0490321,10.9950631 C12.2413261,9.79184779 10.868194,9 9.31011594,9 C7.34964615,9 5.68198691,10.253671 5.06509582,12.0030554 L6.81011594,12 Z" id="Path-Copy" stroke="#40A02B" transform="translate(8.6551, 10.75) rotate(-180) translate(-8.6551, -10.75)"></path>
    </g>
</svg>