<?xml version="1.0" encoding="UTF-8"?>
<svg width="16px" height="16px" viewBox="0 0 16 16" version="1.1" xmlns="http://www.w3.org/2000/svg" xmlns:xlink="http://www.w3.org/1999/xlink">
    <title>typescript_react</title>
    <g id="typescript_react" stroke="none" stroke-width="1" fill="none" fill-rule="evenodd">
        <g id="react" transform="translate(0.5, 1.3163)" stroke="#1E66F5">
            <path d="M7.5,9.68365799 C12,9.68365799 15,8.33360565 15,6.68363182 C15,5.03365799 12,3.68365799 7.5,3.68365799 C3,3.68365799 0,5.03365799 0,6.68363182 C0,8.33360565 3,9.68365799 7.5,9.68365799 Z M4.90192379,8.18365799 C7.15192379,12.0807723 9.82110341,14.0038223 11.2500227,13.1788354 C12.6789419,12.3538485 12.3480762,9.0807723 10.0980762,5.18365799 C7.84807621,1.28654367 5.17894192,-0.636532541 3.75002266,0.188454374 C2.32110341,1.01344129 2.65192379,4.28654367 4.90192379,8.18365799 Z M4.90192379,5.18365799 C2.65192379,9.0807723 2.32110341,12.3538747 3.75002266,13.1788616 C5.17894192,14.0038485 7.84807621,12.0807723 10.0980762,8.18365799 C12.3480762,4.28654367 12.6789419,1.01346746 11.2500227,0.188480543 C9.82110341,-0.636506373 7.15192379,1.28654367 4.90192379,5.18365799 Z M7.5,7.18365799 C7.77614237,7.18365799 8,6.95980036 8,6.68365799 C8,6.40751561 7.77614237,6.18365799 7.5,6.18365799 C7.22385763,6.18365799 7,6.40751561 7,6.68365799 C7,6.95980036 7.22385763,7.18365799 7.5,7.18365799 Z" id="Combined-Shape"></path>
        </g>
    </g>
</svg>